# xmcd CD database file
#
# Track frame offsets:
#	150
#	26438
#	47178
#
# Disc length: 795 seconds
#
# Revision: 0
# Processed by: cddbd v1.5.1PL0 Copyright (c) Steve Scherf et al.
# Submitted via: CDex 1.51
#
DISCID=1d031903
DTITLE=LOVE PSYCHEDELICO - Last Smile
DYEAR=1900
DGENRE=ロック (日本)
TTITLE0=Last Smile
TTITLE1=Moonly (single edit)
TTITLE2=Wasting
EXTD=
EXTT0=
EXTT1=
EXTT2=
PLAYORDER=
